name analog
datacolumns 19
datarows 18
range 0.0 0.0085
endheader
time	ground_force_vx	ground_force_vy	ground_force_vz	ground_force_px	ground_force_py	ground_force_pz	l_ground_force_vx	l_ground_force_vy	l_ground_force_vz	l_ground_force_px	l_ground_force_py	l_ground_force_pz	ground_torque_x	ground_torque_y	ground_torque_z	l_ground_torque_x	l_ground_torque_y	l_ground_torque_z
0.0	-0.0	-0.0	-0.0	5.386593818664551	14.962984085083008	-394.3675231933594	-4.710138320922852	-15.745080947875977	-400.4435729980469	-0.0	-0.0	-0.0	-0.0	-0.0	-0.0	137145.546875	-13437.6953125	-4149.48291015625
0.0005	-0.0	-0.0	-0.0	5.2411322593688965	14.862509727478027	-393.88385009765625	-4.91156530380249	-15.712592124938965	-400.3148193359375	-0.0	-0.0	-0.0	-0.0	-0.0	-0.0	137425.921875	-13427.4677734375	-4130.7861328125
0.001	-0.0	-0.0	-0.0	5.263420104980469	14.96298885345459	-394.369384765625	-4.710488319396973	-15.576983451843262	-400.0692138671875	-0.0	-0.0	-0.0	-0.0	-0.0	-0.0	137303.984375	-13237.849609375	-4208.7294921875
0.0015	-0.0	-0.0	-0.0	5.107098579406738	14.650911331176758	-395.0301513671875	-4.621947765350342	-15.712312698364258	-399.02288818359375	-0.0	-0.0	-0.0	-0.0	-0.0	-0.0	137610.0625	-13380.673828125	-4144.474609375
0.002	-0.0	-0.0	-0.0	5.318994998931885	14.985593795776367	-394.1893615722656	-4.832254409790039	-15.679572105407717	-398.8959655761719	-0.0	-0.0	-0.0	-0.0	-0.0	-0.0	137549.015625	-13233.2265625	-4204.05078125
0.0025	-0.0	-0.0	-0.0	5.152344703674316	15.1958589553833	-393.7558288574219	-4.879093170166016	-15.65618133544922	-399.9439697265625	-0.0	-0.0	-0.0	-0.0	-0.0	-0.0	137426.9375	-13324.3173828125	-4186.9541015625
0.003	-0.0	-0.0	-0.0	5.285177230834961	14.761950492858888	-394.4158325195313	-4.780886650085449	-15.698122024536133	-399.11767578125	-0.0	-0.0	-0.0	-0.0	-0.0	-0.0	137501.65625	-13178.3251953125	-4207.31396484375
0.0035	-0.0	-0.0	-0.0	5.2296295166015625	14.98336696624756	-392.95550537109375	-4.589849472045898	-15.855602264404297	-402.0554504394531	-0.0	-0.0	-0.0	-0.0	-0.0	-0.0	137554.140625	-13298.6005859375	-4211.85693359375
0.004	-0.0	-0.0	-0.0	5.229572296142578	14.918594360351562	-394.5508117675781	-4.892231464385986	-15.767053604125977	-400.9165954589844	-0.0	-0.0	-0.0	-0.0	-0.0	-0.0	137854.0625	-13033.3642578125	-4230.76416015625
0.0045000000000000005	-0.0	-0.0	-0.0	5.275994300842285	14.765539169311523	-393.8801574707031	-4.55982780456543	-15.897903442382812	-400.51666259765625	-0.0	-0.0	-0.0	-0.0	-0.0	-0.0	137809.953125	-13107.8388671875	-4137.3359375
0.005	-0.0	-0.0	-0.0	4.9405436515808105	14.876191139221191	-393.8798828125	-4.802936553955078	-15.65560245513916	-402.22265625	-0.0	-0.0	-0.0	-0.0	-0.0	-0.0	137841.140625	-13099.2734375	-4160.35791015625
0.0055	-0.0	-0.0	-0.0	5.488643646240234	15.075825691223145	-394.8551635742188	-4.600594520568848	-15.534339904785156	-402.3932495117188	-0.0	-0.0	-0.0	-0.0	-0.0	-0.0	138072.421875	-13073.1884765625	-4253.31005859375
0.006	-0.0	-0.0	-0.0	5.076995372772217	14.81667137145996	-393.6607055664063	-4.969209671020508	-15.489240646362305	-401.9566650390625	-0.0	-0.0	-0.0	-0.0	-0.0	-0.0	138186.109375	-12962.7216796875	-4134.3017578125
0.006500000000000001	-0.0	-0.0	-0.0	5.022212982177734	15.013508796691896	-394.4191284179688	-4.746501445770264	-15.489297866821287	-402.2649230957031	-0.0	-0.0	-0.0	-0.0	-0.0	-0.0	138416.921875	-13089.21875	-4175.26611328125
0.007	-0.0	-0.0	-0.0	4.906578063964844	15.474525451660156	-394.2546997070313	-4.646162033081055	-15.688204765319824	-401.6958312988281	-0.0	-0.0	-0.0	-0.0	-0.0	-0.0	138229.5	-12916.37109375	-4208.48095703125
0.0075	-0.0	-0.0	-0.0	4.906578063964844	15.117939949035645	-394.2307434082031	-4.624044895172119	-15.588784217834473	-402.4845886230469	-0.0	-0.0	-0.0	-0.0	-0.0	-0.0	138175.09375	-12835.0048828125	-4212.125
0.008	-0.0	-0.0	-0.0	4.94089412689209	14.87794303894043	-394.9095764160156	-4.612960815429688	-15.478264808654783	-402.7472534179688	-0.0	-0.0	-0.0	-0.0	-0.0	-0.0	138309.21875	-13037.78125	-4297.50390625
0.0085	-0.0	-0.0	-0.0	4.2821044921875	15.15216827392578	-393.9871215820313	-4.790382385253906	-15.38978385925293	-401.220458984375	-0.0	-0.0	-0.0	-0.0	-0.0	-0.0	138344.84375	-12808.25390625	-4319.77099609375
